<svg id="Livello_2" data-name="Livello 2" xmlns="http://www.w3.org/2000/svg" viewBox="0 0 1920 754.06"><defs><style>.cls-1{fill:#1f4e79;}.cls-2{fill:#2e75b6;}.cls-3{fill:#deebf7;}.cls-4{fill:#9dc3e6;}.cls-5{fill:#fff;}.cls-5,.cls-6{fill-rule:evenodd;}</style></defs><title>Logo</title><rect x="65.36" y="343.05" width="345.2" height="345.2"/><rect class="cls-1" x="65.36" width="345.2" height="343.05"/><rect class="cls-2" x="410.56" width="343.05" height="343.05"/><path class="cls-3" d="M2,661.8A697.13,697.13,0,0,1,416.79,532l-4.74,345.08a352,352,0,0,0-209.88,65.86Z" transform="translate(-2 -188.87)"/><rect class="cls-4" x="410.56" y="343.05" width="343.05" height="345.2"/><path d="M785.69,439.23c0-31.58,17.48-51.48,45.26-51.48s45.32,19.9,45.32,51.48-17.48,51.4-45.32,51.4S785.69,470.8,785.69,439.23Zm80.91,0c0-26.19-13.82-42.7-35.65-42.7s-35.58,16.51-35.58,42.7,13.75,42.63,35.58,42.63S866.6,465.34,866.6,439.23Z" transform="translate(-2 -188.87)"/><path d="M1153.28,509.22V420.64a4.29,4.29,0,0,1,4.35-4.63c2.56,0,4.29,1.87,4.29,4.63v11.75h.27A26.27,26.27,0,0,1,1186.93,416c18.17,0,30.61,14.79,30.61,37.1s-12.37,37.11-30.4,37.11c-11.61,0-20.66-6.64-24.46-16h-.28v35c0,2.9-1.86,4.9-4.56,4.9S1153.28,512.12,1153.28,509.22Zm54.93-56.11c0-17.48-9-29-22.87-29-13.61,0-22.94,11.74-22.94,29s9.33,29,22.94,29C1199.23,482.13,1208.21,470.66,1208.21,453.11Z" transform="translate(-2 -188.87)"/><path d="M1489.67,453.46c0-22.8,12.71-37.45,32.13-37.45,18.38,0,31.09,13.82,31.09,33.79,0,3.45-2,5.52-5.39,5.52h-48.43c0,16.86,9,26.88,23.35,26.88,10,0,16.79-4.21,21.49-13.2a4,4,0,0,1,7.53,2,8.51,8.51,0,0,1-.69,2.83c-4.08,10.23-14.51,16.38-27.91,16.38C1502.18,490.22,1489.67,476.54,1489.67,453.46Zm53.82-5.39c-.2-14.44-9-24-21.76-24s-21.83,9.53-22.59,24Z" transform="translate(-2 -188.87)"/><path d="M1828.76,485.31V420.64c0-2.76,1.79-4.63,4.28-4.63a4.28,4.28,0,0,1,4.35,4.63v9.81h.21c3.73-8.77,12.09-14.44,23.77-14.44,15.61,0,25.36,10.16,25.36,26.46v42.84c0,2.9-1.87,4.91-4.56,4.91s-4.56-2-4.56-4.91V443.92c0-12.57-7-19.76-18.87-19.76-12.57,0-20.86,9-20.86,22.32v38.83c0,2.9-1.87,4.91-4.56,4.91S1828.76,488.21,1828.76,485.31Z" transform="translate(-2 -188.87)"/><path d="M1899.49,529.78h19.29a3.22,3.22,0,1,1,0,6.43h-19.29a3.22,3.22,0,1,1,0-6.43Zm-45,0h19.3a3.22,3.22,0,0,1,0,6.43h-19.3a3.22,3.22,0,1,1,0-6.43Zm-45,0h19.29a3.22,3.22,0,1,1,0,6.43h-19.29a3.22,3.22,0,1,1,0-6.43Zm-45,0h19.3a3.22,3.22,0,0,1,0,6.43h-19.3a3.22,3.22,0,1,1,0-6.43Zm-45,0h19.3a3.22,3.22,0,1,1,0,6.43h-19.3a3.22,3.22,0,0,1,0-6.43Zm-45,0h19.29a3.22,3.22,0,1,1,0,6.43h-19.29a3.22,3.22,0,1,1,0-6.43Zm-45,0h19.3a3.22,3.22,0,0,1,0,6.43h-19.3a3.22,3.22,0,0,1,0-6.43Zm-45,0h19.29a3.22,3.22,0,1,1,0,6.43h-19.29a3.22,3.22,0,1,1,0-6.43Zm-45,0h19.3a3.22,3.22,0,0,1,0,6.43h-19.3a3.22,3.22,0,1,1,0-6.43Zm-45,0h19.3a3.22,3.22,0,1,1,0,6.43h-19.3a3.22,3.22,0,0,1,0-6.43Zm-45,0h19.29a3.22,3.22,0,1,1,0,6.43h-19.29a3.22,3.22,0,1,1,0-6.43Zm-45,0h19.3a3.22,3.22,0,0,1,0,6.43h-19.3a3.22,3.22,0,0,1,0-6.43Zm-45,0h19.29a3.22,3.22,0,1,1,0,6.43h-19.29a3.22,3.22,0,1,1,0-6.43Zm-45,0h19.3a3.22,3.22,0,0,1,0,6.43h-19.3a3.22,3.22,0,1,1,0-6.43Zm-45,0h19.3a3.22,3.22,0,1,1,0,6.43h-19.3a3.22,3.22,0,0,1,0-6.43Zm-45,0h19.29a3.22,3.22,0,1,1,0,6.43H1224.1a3.22,3.22,0,1,1,0-6.43Zm-45,0h19.3a3.22,3.22,0,0,1,0,6.43h-19.3a3.22,3.22,0,0,1,0-6.43Zm-45,0h19.29a3.22,3.22,0,1,1,0,6.43h-19.29a3.22,3.22,0,1,1,0-6.43Zm-45,0h19.3a3.22,3.22,0,0,1,0,6.43H1089a3.22,3.22,0,1,1,0-6.43Zm-45,0h19.3a3.22,3.22,0,1,1,0,6.43H1044a3.22,3.22,0,0,1,0-6.43Zm-45,0h19.29a3.22,3.22,0,1,1,0,6.43H999a3.22,3.22,0,1,1,0-6.43Zm-45,0h19.3a3.22,3.22,0,0,1,0,6.43h-19.3a3.22,3.22,0,0,1,0-6.43Zm-45,0h19.29a3.22,3.22,0,1,1,0,6.43H908.92a3.22,3.22,0,1,1,0-6.43Zm-45,0h19.3a3.22,3.22,0,0,1,0,6.43h-19.3a3.22,3.22,0,1,1,0-6.43Zm-45,0h19.3a3.22,3.22,0,1,1,0,6.43h-19.3a3.22,3.22,0,0,1,0-6.43Zm-45,0h19.29a3.22,3.22,0,1,1,0,6.43H773.84a3.22,3.22,0,1,1,0-6.43Zm-45,0h19.3a3.22,3.22,0,1,1,0,6.43h-19.3a3.22,3.22,0,0,1,0-6.43Zm-45,0h19.29a3.22,3.22,0,1,1,0,6.43H683.79a3.22,3.22,0,1,1,0-6.43Zm-45,0h19.3a3.22,3.22,0,0,1,0,6.43h-19.3a3.22,3.22,0,1,1,0-6.43Zm-45,0H613a3.22,3.22,0,1,1,0,6.43h-19.3a3.22,3.22,0,0,1,0-6.43Zm-45,0H568a3.22,3.22,0,0,1,0,6.43h-19.3a3.22,3.22,0,1,1,0-6.43Zm-45,0H523a3.22,3.22,0,1,1,0,6.43h-19.3a3.22,3.22,0,0,1,0-6.43Zm-45,0H478a3.22,3.22,0,1,1,0,6.43H458.66a3.22,3.22,0,1,1,0-6.43Zm-45,0h19.3a3.22,3.22,0,0,1,0,6.43h-19.3a3.22,3.22,0,1,1,0-6.43Z" transform="translate(-2 -188.87)"/><path class="cls-5" d="M756.65,189.18l-345,345H367.38l-5.82-6.72.14-.12L298.39,464.2,278.53,475a123,123,0,1,1,54.11-44.55L321,444.54l63.48,63.28Zm-526,76.06a96.43,96.43,0,1,0,96.42,96.43A96.42,96.42,0,0,0,230.66,265.24Z" transform="translate(-2 -188.87)"/><path d="M784.84,862.33V570.46c0-9.77,5.77-15.76,15.09-15.76H963.06c8.88,0,14.65,5.55,14.65,13.76,0,8-5.77,13.76-14.65,13.76H815v120.3H950.41c8.66,0,14.43,5.33,14.43,13.54,0,8-5.77,13.54-14.43,13.54H815V862.33c0,9.76-5.77,15.75-15.09,15.75S784.84,872.09,784.84,862.33Z" transform="translate(-2 -188.87)"/><path d="M998.21,759.56c0-73,42.17-119.19,105.21-119.19s105.2,46.17,105.2,119.19-42.17,119.19-105.2,119.19S998.21,832.58,998.21,759.56Zm180.67,0c0-58.15-29.74-93.22-75.46-93.22-45.5,0-75.25,34.85-75.25,93.22s29.75,93.22,75.25,93.22C1149.14,852.78,1178.88,817.71,1178.88,759.56Z" transform="translate(-2 -188.87)"/><path d="M1241.31,863V655.24c0-8.88,5.55-14.87,13.77-14.87s14,6,14,14.87v30h.66c7.77-27.08,30.41-44.84,55.72-44.84,8,0,14.42,1.56,19.08,4.88a12.67,12.67,0,0,1,5.33,10.66c0,4.66-1.78,8.21-5.33,10.43-4.21,2.22-9.76,2-20,2-36.4,0-53.94,28-53.94,63V863c0,9.32-6,15.76-14.65,15.76S1241.31,872.31,1241.31,863Z" transform="translate(-2 -188.87)"/><path d="M1376.11,859.22V570.46c0-9.77,5.77-15.76,15.09-15.76h100.1c55,0,92.34,31.74,92.34,79,0,35.52-24.42,65.92-58.6,72.14v1.55c44.39,5.33,75.24,35.29,75.24,79.68,0,54.6-40.61,87.9-108.31,87.9H1391.2C1381.88,875,1376.11,869,1376.11,859.22ZM1476,697c48.61,0,77-22.2,77-59.93,0-34.84-25.53-55.49-68.14-55.49h-78.58V697Zm11.76,151.15c52.38,0,81.46-22.86,81.46-62.59,0-39.95-30.19-62.37-85.45-62.37h-77.47v125Z" transform="translate(-2 -188.87)"/><path d="M1624.32,714.06c0-100.32,55.71-164.47,142.72-164.47,59,0,107.87,34.18,123.85,83.9a41.72,41.72,0,0,1,2.66,13.54c0,8.43-5.33,14-13.76,14-7.33,0-12.65-4-16-12.87-12.43-43.06-51.5-70.36-96.77-70.36-67.92,0-111.65,53.05-111.65,136.28,0,84.34,43.73,137.83,111.87,137.83,47.27,0,85.23-23.52,97.21-65.69,3.11-7.55,7.33-11.1,14.21-11.1,8.21,0,13.76,5.77,13.76,14a39.12,39.12,0,0,1-3.77,16.43c-17.32,46.16-61.71,74.57-121.63,74.57C1679.81,880.08,1624.32,815.49,1624.32,714.06Z" transform="translate(-2 -188.87)"/><path class="cls-6" d="M756.65,878.3l-345-345H367.38l-5.82,6.72.14.12-63.31,63.11L278.53,592.5a123,123,0,1,0,54.11,44.56L321,622.94l63.48-63.27Zm-526-76.06a96.42,96.42,0,1,1,96.42-96.42A96.42,96.42,0,0,1,230.66,802.24Z" transform="translate(-2 -188.87)"/></svg>